<svg width="183" height="61" viewBox="0 0 183 61" fill="none" xmlns="http://www.w3.org/2000/svg">
<path d="M28.9245 23.8629C28.9462 23.917 28.9651 23.9712 28.9841 24.0253L28.8325 24.0821L28.8947 23.8115L28.9245 23.8629Z" fill="white"/>
<path d="M29.5912 20.6396C30.2244 21.1673 30.9251 21.6218 31.5312 22.1846C31.9603 22.557 32.2968 23.0243 32.5138 23.5494C32.7308 24.0745 32.8224 24.643 32.7813 25.2097C32.6859 25.0844 32.5829 24.9651 32.4729 24.8524C32.155 24.5343 31.7775 24.2821 31.3619 24.1103C30.9463 23.9385 30.5009 23.8506 30.0512 23.8514H29.9701C29.9018 23.6275 29.8177 23.4085 29.7184 23.1965C29.5815 22.9091 29.3988 22.6459 29.1772 22.4173L29.5912 20.6396Z" fill="white"/>
<path d="M33.4242 26.7003C33.8915 25.6491 33.9361 24.4582 33.5487 23.375C33.1022 22.1655 32.166 21.3566 31.1676 20.5989C30.7064 20.2646 30.2655 19.9032 29.8472 19.5167L30.7888 15.3389C30.9552 15.6698 31.1595 15.9805 31.3976 16.2643C31.8989 16.8168 32.5002 17.2693 33.1698 17.5982C33.8263 17.9564 34.3451 18.5228 34.6444 19.2082C35.2066 20.4209 35.3949 21.7734 35.1856 23.0936C34.9849 24.4695 34.3771 25.7538 33.4404 26.7815L33.4242 26.7003Z" fill="white"/>
<path d="M37.2474 23.3728C37.932 23.9275 38.8059 24.4199 38.998 25.3291C38.3981 24.8637 37.6603 24.6114 36.9011 24.6119C36.5225 24.6112 36.1466 24.6744 35.7891 24.7987C36.0901 23.9566 36.2518 23.0709 36.2679 22.1768C36.5022 22.6428 36.8367 23.0513 37.2474 23.3728Z" fill="white"/>
<path d="M40.0383 25.8889C40.0743 25.1382 39.8249 24.4016 39.3402 23.8271C38.7531 23.1291 37.8223 22.7584 37.3082 21.9981C37.0743 21.6507 36.9855 21.2255 37.0608 20.8134C37.1362 20.4014 37.3696 20.0352 37.7114 19.793C37.993 20.4917 38.5072 21.0718 39.1671 21.4353C39.6652 21.6694 40.0531 22.0874 40.2494 22.6015C40.4402 23.0805 40.5323 23.5931 40.52 24.1085C40.4989 24.7312 40.334 25.3406 40.0383 25.8889Z" fill="white"/>
<path d="M79.1343 30.437C79.1171 38.529 75.8862 46.2827 70.1523 51.9927C64.4185 57.7027 56.6514 60.9012 48.5594 60.8846H17.8762C17.6159 60.8853 17.3583 60.8322 17.1194 60.7289C16.8806 60.6255 16.6655 60.4741 16.4878 60.2839C16.3101 60.0937 16.1735 59.869 16.0865 59.6237C15.9995 59.3784 15.964 59.1178 15.9822 58.8581C16.0211 58.3715 16.2429 57.9177 16.6028 57.5879C16.9627 57.2582 17.4341 57.0767 17.9222 57.0803H19.9001C20.3259 57.0803 20.7389 56.9354 21.0714 56.6693C21.4038 56.4033 21.6358 56.032 21.7292 55.6166L23.91 45.9219H55.9271C56.0772 45.9226 56.226 45.8936 56.3649 45.8365C56.5037 45.7793 56.6299 45.6953 56.736 45.5891C56.8422 45.483 56.9263 45.3567 56.9834 45.2179C57.0406 45.079 57.0696 44.9302 57.0689 44.78C57.0625 44.4731 56.9353 44.1812 56.715 43.9674C56.4946 43.7536 56.1989 43.6354 55.8919 43.6383H54.2143C54.5151 43.187 54.7044 42.6706 54.7666 42.1318C54.8288 41.593 54.7622 41.0473 54.5723 40.5392C54.3823 40.0312 54.0745 39.5756 53.6741 39.2098C53.2736 38.844 52.792 38.5785 52.2689 38.4352C52.474 37.9158 52.549 37.3542 52.4875 36.7992C52.4259 36.2442 52.2296 35.7127 51.9156 35.2509C51.6016 34.7891 51.1795 34.4112 50.686 34.1498C50.1925 33.8885 49.6427 33.7517 49.0843 33.7515C48.9513 33.7514 48.8185 33.7594 48.6865 33.7758C48.5983 32.9345 48.2016 32.1558 47.5731 31.5897C46.9445 31.0236 46.1286 30.7102 45.2827 30.7102C44.8765 30.7102 44.4736 30.7817 44.0922 30.9213C44.126 30.7265 44.1432 30.5291 44.1436 30.3314C44.1436 29.8817 44.055 29.4364 43.8828 29.0209C43.7106 28.6055 43.4582 28.2281 43.1401 27.9102C42.822 27.5924 42.4444 27.3403 42.0288 27.1684C41.6132 26.9966 41.1678 26.9083 40.7181 26.9087H40.618C41.1192 26.1915 41.424 25.3555 41.5018 24.4839C41.5797 23.6124 41.428 22.7357 41.0618 21.941C40.8381 21.444 40.4705 21.0255 40.0065 20.7396C39.514 20.442 39.0865 20.2201 38.7916 19.6979C38.5367 19.2322 38.4662 18.6877 38.594 18.1725C38.7218 17.6572 39.0386 17.2089 39.4816 16.9163C40.0227 16.5537 39.514 15.6744 38.9702 16.0397C38.5156 16.3328 38.1431 16.7366 37.8875 17.2132C37.632 17.6898 37.5017 18.2236 37.5091 18.7644C37.1764 18.9252 36.8813 19.1543 36.6431 19.4368C36.4048 19.7194 36.2288 20.0489 36.1265 20.4041C35.8559 19.0918 35.2309 17.6984 34.0728 16.9353C33.437 16.5241 32.7822 16.2589 32.2627 15.6853C31.7983 15.1678 31.4766 14.5383 31.3291 13.8589C31.2929 13.6894 31.2685 13.5177 31.2562 13.3448L31.727 11.2613L32.1896 9.19411L32.3005 8.70978C32.35 8.48847 32.3491 8.25888 32.2979 8.03796C32.2467 7.81705 32.1464 7.61059 32.0045 7.43366C31.8627 7.25674 31.6829 7.11395 31.4784 7.01591C31.2739 6.91787 31.05 6.86709 30.8232 6.86728H23.9858C23.0817 6.8666 22.2145 6.50878 21.573 5.87179C20.9314 5.23479 20.5675 4.37012 20.5603 3.46608C20.5696 2.54744 20.9412 1.6697 21.5944 1.02364C22.2475 0.377592 23.1293 0.0154967 24.048 0.0162567H34.2541V6.44031e-06H48.5729C65.4513 -0.0108165 79.1343 13.6208 79.1343 30.437Z" fill="white"/>
<path d="M16.3528 0.765625H14.0692C12.5987 0.765625 11.4067 1.9576 11.4067 3.42803V3.43081C11.4067 4.90124 12.5987 6.09322 14.0692 6.09322H16.3528C17.8233 6.09322 19.0153 4.90124 19.0153 3.43081V3.42803C19.0153 1.9576 17.8233 0.765625 16.3528 0.765625Z" fill="white"/>
<path d="M12.5488 57.0811C12.0465 57.0811 11.5647 57.2806 11.2095 57.6358C10.8543 57.991 10.6548 58.4727 10.6548 58.9751C10.6548 59.4774 10.8543 59.9593 11.2095 60.3145C11.5647 60.6697 12.0465 60.8691 12.5488 60.8691C13.0511 60.8691 13.5329 60.6697 13.8881 60.3145C14.2433 59.9593 14.4428 59.4774 14.4428 58.9751C14.4428 58.4727 14.2433 57.991 13.8881 57.6358C13.5329 57.2806 13.0511 57.0811 12.5488 57.0811Z" fill="white"/>
<path d="M7.22161 57.0811H1.89402C1.39169 57.0811 0.909888 57.2806 0.554691 57.6358C0.199493 57.991 0 58.4727 0 58.9751C0 59.4774 0.199493 59.9593 0.554691 60.3145C0.909888 60.6697 1.39169 60.8691 1.89402 60.8691H7.22161C7.72394 60.8691 8.20568 60.6697 8.56088 60.3145C8.91607 59.9593 9.11563 59.4774 9.11563 58.9751C9.11563 58.4727 8.91607 57.991 8.56088 57.6358C8.20568 57.2806 7.72394 57.0811 7.22161 57.0811Z" fill="white"/>
<path d="M32.4975 8.94808C32.3839 9.02384 32.273 9.1022 32.1674 9.18338C31.5298 9.68015 31.0237 10.3258 30.6935 11.0635C30.3633 11.8013 30.2191 12.6087 30.2734 13.4152C29.7277 13.6362 29.2363 13.9726 28.8327 14.4013C28.4292 14.83 28.1232 15.341 27.9357 15.8991C27.7952 16.3311 27.732 16.7844 27.7489 17.2384C27.7101 17.2535 27.673 17.2727 27.638 17.2953C27.1713 17.5864 26.7899 17.9957 26.5326 18.4819C26.2753 18.968 26.1512 19.5136 26.1729 20.0632C26.1946 20.6128 26.3614 21.1467 26.6563 21.611C26.9511 22.0753 27.3636 22.4535 27.8518 22.7068C28.3226 22.932 28.6936 23.3231 28.8935 23.8052L29.2047 22.4254C29.0479 22.2615 28.8706 22.1186 28.677 22.0005C28.1819 21.7056 27.7544 21.4838 27.4622 20.9615C27.2282 20.5361 27.1482 20.0431 27.2354 19.5655C27.3226 19.0879 27.5719 18.655 27.9411 18.3397C28.1086 18.8645 28.3739 19.3529 28.723 19.7791C28.9882 20.0966 29.2836 20.3874 29.6051 20.6476L29.8594 19.5113C29.3514 19.0499 28.9917 18.4482 28.8258 17.7823C28.6877 17.1253 28.7724 16.441 29.0663 15.8374C29.3603 15.2338 29.8468 14.7453 30.4493 14.4489C30.537 14.7547 30.6549 15.0511 30.801 15.3337L31.2475 13.3421C31.2021 12.6169 31.3655 11.894 31.7183 11.2588C32.0283 10.6828 32.4764 10.1929 33.0224 9.83286C33.5527 9.46758 33.0468 8.58821 32.4975 8.94808ZM26.6315 27.0928C26.2635 26.9608 25.8752 26.8939 25.4843 26.8953C25.0346 26.8946 24.5892 26.9826 24.1736 27.1544C23.758 27.3261 23.3803 27.5782 23.0624 27.8962C22.7444 28.2142 22.4924 28.5917 22.3206 29.0073C22.1488 29.4229 22.0607 29.8683 22.0615 30.318C22.0606 30.5176 22.0779 30.7167 22.1129 30.9132C21.6232 30.7318 21.0985 30.6648 20.5788 30.7172C20.0592 30.7695 19.5584 30.9398 19.1147 31.2152C18.6709 31.4906 18.2959 31.8637 18.0184 32.3061C17.7408 32.7485 17.568 33.2485 17.5131 33.7679C17.3803 33.7516 17.2466 33.7433 17.1127 33.7434C16.7982 34.9655 16.212 36.1011 15.3978 37.0652C14.5836 38.0293 13.5623 38.7972 12.4101 39.3119C11.8485 39.8723 11.4989 40.6104 11.4209 41.4C11.343 42.1895 11.5414 42.9816 11.9826 43.641H9.50412C9.35417 43.641 9.20568 43.6706 9.06715 43.728C8.92861 43.7854 8.80279 43.8695 8.69676 43.9756C8.59073 44.0816 8.50662 44.2073 8.44924 44.3459C8.39186 44.4844 8.3623 44.633 8.3623 44.7829C8.3623 44.9329 8.39186 45.0813 8.44924 45.2198C8.50662 45.3584 8.59073 45.4843 8.69676 45.5903C8.80279 45.6963 8.92861 45.7805 9.06715 45.8379C9.20568 45.8953 9.35417 45.9247 9.50412 45.9247H23.9041L28.8177 24.0866C28.2013 24.3237 27.6667 24.7342 27.2787 25.2687C26.8907 25.8031 26.6659 26.4387 26.6315 27.0982V27.0928ZM12.5616 41.1627C12.5352 41.2321 12.4838 41.2891 12.4175 41.3225C12.3512 41.356 12.2748 41.3634 12.2033 41.3434C12.1317 41.3234 12.0703 41.2775 12.031 41.2145C11.9916 41.1515 11.9773 41.076 11.9907 41.0029C12.1358 40.5282 12.4004 40.0987 12.7591 39.7556C13.1472 39.4042 13.6097 39.1453 14.112 38.9981C14.4773 38.8871 14.6315 39.458 14.269 39.569C13.8673 39.6873 13.4974 39.8943 13.1867 40.175C12.9026 40.4481 12.689 40.7861 12.5643 41.1599L12.5616 41.1627ZM14.6126 40.3509C14.5912 40.4253 14.5417 40.4883 14.4746 40.5268L14.3934 40.5754L14.415 40.5565L14.3555 40.6025L14.3826 40.5836C14.3486 40.6164 14.3066 40.6397 14.2608 40.6512H14.1824C14.1044 40.6503 14.0297 40.6193 13.974 40.5647C13.9192 40.508 13.8882 40.4324 13.8874 40.3536C13.8884 40.2756 13.9194 40.201 13.974 40.1452C14.0347 40.0923 14.1009 40.0461 14.1715 40.0073C14.2414 39.9708 14.3219 39.9601 14.3988 39.9775C14.4749 39.9983 14.5395 40.0486 14.5785 40.1171C14.6176 40.1856 14.6279 40.2667 14.6072 40.3428L14.6126 40.3509ZM22.0046 32.2634C21.2822 31.9712 20.2188 32.2904 19.84 33.0102C19.6588 33.3457 19.1474 33.0454 19.3287 32.7099C19.6219 32.2727 20.0354 31.9297 20.5192 31.7223C21.0449 31.5044 21.6337 31.4938 22.167 31.6926C22.5133 31.8197 22.3591 32.3824 22.0073 32.2498L22.0046 32.2634Z" fill="white"/>
<path d="M94.1786 37.8634L94.0997 37.8898C93.626 37.8898 93.205 37.6792 92.8366 37.2845L92.784 37.2056C92.7313 37.153 92.6524 37.0477 92.6261 37.0214C92.1788 36.7846 91.6525 36.2846 91.6788 35.311C91.6788 34.8636 91.6788 34.4163 91.6788 33.969C91.6788 33.4164 91.6788 32.8638 91.7051 32.3112C91.7314 31.5217 91.7577 30.7323 91.784 30.0745L91.8104 29.364V27.6536C91.8104 26.2063 91.8104 24.8906 91.8104 23.5749V23.3644C91.8104 23.0223 91.8104 22.6802 91.7314 22.3644C91.5472 21.7066 91.784 21.0487 92.3893 20.6014C92.705 20.3909 93.0471 20.2856 93.3892 20.2856C93.7313 20.2856 94.0471 20.4172 94.3102 20.654C94.3891 20.7067 94.4154 20.7067 94.4418 20.7067C94.5207 20.7067 94.626 20.6803 94.7575 20.654C95.7312 20.4435 96.5995 20.3383 97.4153 20.3383C97.6521 20.3383 97.8889 20.3383 98.1257 20.3646C99.8888 20.4961 101.152 21.4171 101.915 23.1012C102.283 23.917 102.52 24.7853 102.625 25.68C102.731 26.5747 102.783 27.3115 102.81 27.9957C102.836 28.9167 102.836 29.864 102.836 30.7586V31.5217C102.836 33.1532 102.204 34.6005 100.941 35.8109C99.7835 36.9161 98.5468 37.495 97.1521 37.6003C96.6785 37.6266 96.2048 37.6792 95.7312 37.7319L95.2049 37.7845C95.1259 37.7845 95.047 37.7845 94.968 37.7845C94.8365 37.7845 94.7049 37.7845 94.626 37.8108C94.4681 37.8371 94.3102 37.8634 94.1786 37.8634ZM94.8891 34.5479L94.7838 34.6531C94.8891 34.6531 94.9944 34.6531 95.0996 34.6531C95.6259 34.6531 96.1522 34.5742 96.7048 34.4952C98.2573 34.2584 99.3625 33.048 99.4151 31.5217C99.4414 30.785 99.4414 30.0482 99.4151 29.3377C99.3888 28.443 99.3362 27.4957 99.2572 26.3379C99.2309 25.759 99.073 25.1274 98.7836 24.4959C98.5468 23.9696 98.231 23.7328 97.7047 23.7065C97.5995 23.7065 97.4942 23.7065 97.3889 23.7065C96.5732 23.7065 95.7838 23.8117 94.968 24.0485C94.968 24.2064 94.968 24.3643 94.968 24.5222C94.9417 27.4167 94.9154 30.3113 94.8891 33.2058C94.8891 33.4427 94.8891 33.6795 94.8891 33.9163C94.8891 34.1268 94.8891 34.3374 94.8891 34.5479ZM105.047 24.4959L104.995 24.4696C104.152 24.4696 103.547 24.0485 103.258 23.3118L103.231 23.2328C103.205 23.1539 103.179 23.0749 103.153 22.996C102.968 22.4171 103.021 21.8645 103.337 21.4435C103.653 21.0224 104.179 20.7856 104.81 20.7856H104.837C105.784 20.7856 106.389 21.2593 106.6 22.1539C106.679 22.5223 106.705 22.8644 106.652 23.1802C106.547 23.9696 105.916 24.4959 105.047 24.4959ZM107.573 35.5478L107.521 35.5215C107.573 35.732 107.573 35.9425 107.547 36.1793C107.494 36.5477 107.389 36.8635 107.258 37.1266C106.889 37.8108 106.152 38.074 105.363 37.8108H105.337C104.6 37.5477 104.179 36.9951 104.179 36.232V36.153C104.179 36.0741 104.179 35.9951 104.179 35.9162C104.179 34.8373 104.179 33.7584 104.152 32.6796C104.126 31.7586 104.047 30.8113 103.968 29.8903C103.942 29.4692 103.916 29.0482 103.889 28.6272L103.863 28.3114C103.837 27.9957 103.81 27.6799 103.784 27.3641C103.784 27.101 103.81 26.8642 103.863 26.6536C103.968 26.1537 104.258 25.7326 104.652 25.4958C104.837 25.3643 104.837 25.4169 105.126 25.3116L106.126 25.3906C106.679 25.6274 107.073 26.1537 107.126 26.8115C107.179 27.3904 107.205 27.9693 107.231 28.5483L107.284 29.4692C107.363 30.785 107.442 32.1007 107.521 33.4164C107.547 33.6532 107.547 33.89 107.547 34.1268L107.573 34.6005V35.5478ZM115.826 30.6797L115.747 30.7323C116.694 31.4165 117.484 32.8375 116.957 34.3637C116.3 36.3372 114.905 37.5214 112.852 37.9161C112.563 37.9687 112.3 37.9687 112.116 37.9687C112.063 37.9687 112.01 37.9687 111.958 37.9687H111.931H111.905C110.8 37.9161 109.932 37.7845 109.089 37.5477C108.747 37.4424 108.458 37.3108 108.221 37.153C107.668 36.7582 107.432 36.1267 107.563 35.4425C107.695 34.8373 108.09 34.39 108.695 34.1795C108.853 34.1268 109.011 34.1005 109.168 34.1005C109.537 34.1005 109.826 34.2321 110.037 34.3637C110.51 34.6268 111.01 34.7584 111.589 34.7584C111.905 34.7584 112.247 34.7058 112.589 34.6268C113.194 34.4952 113.589 34.1005 113.826 33.4164C113.668 33.2848 113.484 33.1795 113.326 33.1269C113.037 33.0216 112.721 32.9427 112.405 32.8638L112.116 32.7848C111.484 32.6269 110.958 32.3901 110.51 32.0743C109.247 31.206 108.8 29.864 109.353 28.4693C109.984 26.8378 111.195 25.7853 112.931 25.3379C113.142 25.2853 113.352 25.259 113.563 25.259C114.063 25.259 114.536 25.4169 114.957 25.7326C115.563 26.18 115.694 26.7326 115.694 27.1273C115.694 27.5746 115.536 27.9957 115.247 28.3114C114.957 28.6009 114.589 28.7588 114.194 28.7588C114.063 28.7588 113.931 28.7325 113.8 28.7061C113.642 28.6535 113.51 28.6272 113.405 28.6272C113.3 28.6272 113.221 28.6535 113.116 28.7061C112.826 28.9167 112.616 29.1272 112.484 29.3903C112.642 29.4692 112.8 29.5219 112.958 29.5745C113.168 29.6271 113.379 29.6798 113.615 29.7324C113.8 29.785 113.984 29.8376 114.168 29.8903C114.773 30.0745 115.326 30.3376 115.826 30.6797ZM126.437 26.18L126.464 26.2063C127.306 26.6536 128.306 27.7062 128.253 30.206L128.095 36.5214C128.069 37.3372 127.437 37.9687 126.674 37.9687C126.648 37.9687 126.648 37.9687 126.621 37.9687C125.832 37.9424 125.227 37.2582 125.253 36.4425L125.411 30.1271C125.437 29.2324 125.279 28.8903 125.227 28.8377C124.806 28.5483 122.832 29.4166 120.99 30.8376L120.964 36.4425C120.964 37.2582 120.332 37.9161 119.543 37.9161C118.754 37.9161 118.122 37.2582 118.122 36.4425V30.1271C118.122 30.0218 118.122 29.9166 118.148 29.8376L118.175 21.7329C118.175 20.9172 118.806 20.2593 119.596 20.2593C120.385 20.2593 121.017 20.9172 121.017 21.7329L120.99 27.2589C122.674 26.2326 124.832 25.3379 126.437 26.18ZM138.041 26.5221L138.015 26.4694C139.12 27.3115 139.699 28.5219 139.699 29.9692C139.699 31.8901 138.936 33.469 137.436 34.6531C136.567 35.3373 135.567 35.6794 134.462 35.6794H134.41C133.989 35.6794 133.568 35.6531 133.173 35.6267L132.857 35.6004C132.752 35.6004 132.647 35.6004 132.541 35.6004C132.541 36.3635 132.541 37.1266 132.541 37.8898V38.5213C132.541 38.8107 132.568 39.0213 132.647 39.2055C132.962 39.8896 132.804 40.6001 132.199 41.2316C131.883 41.5737 131.462 41.7579 131.015 41.7579C130.278 41.7579 129.647 41.2843 129.436 40.5738C129.357 40.2843 129.331 39.9949 129.331 39.7844C129.305 39.2318 129.278 38.6002 129.278 37.9687C129.278 37.1793 129.278 36.3899 129.278 35.6004C129.278 34.4163 129.278 33.1795 129.252 31.9691C129.252 31.3112 129.226 30.6271 129.199 29.9692C129.173 29.4692 129.147 28.9693 129.12 28.4693V28.3641C129.094 27.8378 129.068 27.2852 129.147 26.7326C129.252 25.9695 129.91 25.4169 130.699 25.4169C131.015 25.4169 131.305 25.4958 131.568 25.6537C131.673 25.7326 131.778 25.8116 131.857 25.8905C132.62 25.6011 133.304 25.4432 133.989 25.3906C134.199 25.3643 134.41 25.3643 134.594 25.3643C135.857 25.3643 137.015 25.759 138.041 26.5221ZM136.436 30.3902L136.541 30.3376C136.699 29.5745 136.409 29.0482 135.673 28.7325C135.331 28.6009 134.988 28.5219 134.594 28.5219C134.357 28.5219 134.12 28.5483 133.857 28.6009C133.357 28.7061 132.831 28.864 132.462 29.2324V29.4429C132.489 30.3902 132.515 31.3375 132.541 32.2849C133.094 32.3638 133.646 32.4164 134.199 32.4427C134.225 32.4427 134.252 32.4427 134.278 32.4427C135.067 32.4427 135.646 32.0743 136.067 31.3375C136.225 31.0744 136.357 30.7586 136.436 30.3902ZM151.103 35.5741L151.024 35.5215C151.34 36.3635 151.024 37.1793 150.235 37.5477C149.998 37.6529 149.761 37.7056 149.525 37.7056C149.13 37.7056 148.761 37.5477 148.419 37.2319C148.314 37.153 148.235 37.074 148.156 36.9688L147.762 37.1003C147.13 37.3372 146.446 37.4424 145.762 37.4424C145.367 37.4424 144.946 37.4161 144.525 37.3372C141.893 36.8635 140.394 34.8636 140.709 32.2585C141.051 29.3377 142.525 27.2326 145.077 25.9695C145.788 25.6274 146.446 25.4169 147.104 25.3643C147.262 25.3643 147.419 25.3643 147.577 25.3643C147.867 25.3643 148.156 25.3906 148.419 25.4432L148.551 25.4695C148.761 25.4958 148.946 25.5221 149.13 25.5221H149.209C150.156 25.5221 150.788 26.18 150.788 27.1536C150.788 27.2852 150.788 27.4167 150.761 27.5483C150.603 28.7061 150.603 29.9166 150.603 31.0744C150.603 31.4691 150.603 31.8638 150.603 32.2585C150.577 33.5479 150.735 34.6005 151.103 35.5741ZM147.262 31.0744V30.4955H147.34V30.3376C147.367 29.7587 147.393 29.1798 147.393 28.6009C147.367 28.6009 147.34 28.6009 147.314 28.6009C145.472 28.9956 143.893 30.9955 143.92 32.8901C143.92 33.3111 144.078 33.8637 144.762 34.0742C145.077 34.1795 145.393 34.2321 145.709 34.2321C146.156 34.2321 146.63 34.1268 147.077 33.9163C147.288 33.8111 147.34 33.7321 147.314 33.4953C147.262 32.9164 147.262 32.3375 147.262 31.7849C147.262 31.5481 147.262 31.3112 147.262 31.0744ZM157.961 33.8111L157.935 33.8374C158.33 33.8374 158.698 33.969 158.988 34.2058C159.514 34.6531 159.698 35.3636 159.435 36.0215C159.224 36.5214 158.856 36.9161 158.382 37.1793C157.435 37.6792 156.54 37.9424 155.646 38.0213C155.54 38.0213 155.435 38.0213 155.33 38.0213C153.988 38.0213 152.856 37.2056 152.383 35.8899C152.172 35.2847 152.067 34.6268 152.067 33.89C152.067 33.5742 152.067 33.2585 152.067 32.9427C152.067 32.4691 152.067 31.9691 152.067 31.4954C152.067 30.8902 152.093 30.285 152.12 29.7061C152.146 29.1272 152.172 28.5483 152.172 27.9693C152.146 26.9957 152.146 25.9958 152.146 25.0222V24.3643C152.146 24.1275 152.146 23.8643 152.199 23.6012C152.33 22.917 152.909 22.4171 153.619 22.3381C153.672 22.3381 153.725 22.3381 153.777 22.3381C154.409 22.3381 154.988 22.7328 155.198 23.2854C155.33 23.6275 155.409 24.0222 155.409 24.4433C155.435 25.3379 155.435 26.2326 155.435 27.1273C155.435 27.5483 155.435 27.9693 155.435 28.3904C155.435 28.4693 155.435 28.5483 155.435 28.6272C155.777 28.6009 156.119 28.5483 156.461 28.4956C156.698 28.4693 156.909 28.443 157.119 28.4167C157.224 28.4167 157.33 28.3904 157.435 28.3641C157.54 28.3377 157.646 28.3114 157.751 28.2851C157.856 28.2588 157.961 28.2588 158.067 28.2588C158.909 28.2588 159.566 28.7851 159.698 29.5745C159.856 30.4429 159.303 31.2586 158.435 31.4691C158.067 31.5481 157.698 31.6007 157.33 31.6533L157.093 31.6796C156.593 31.7323 156.093 31.7849 155.593 31.8375L155.409 31.8638C155.383 32.5743 155.356 33.2585 155.356 33.9426C155.356 34.1532 155.383 34.4163 155.435 34.7058C155.435 34.7321 155.435 34.7584 155.435 34.7847C155.461 34.7847 155.488 34.7847 155.514 34.7847C156.146 34.7058 156.54 34.5479 156.856 34.2847C156.935 34.2058 157.014 34.1268 157.119 34.0479C157.382 33.89 157.672 33.8111 157.961 33.8111ZM168.862 34.4163L168.967 34.5742C169.625 34.7584 170.098 35.4162 170.072 36.1004C170.046 36.7846 169.572 37.3898 168.888 37.6003C168.756 37.6266 168.625 37.6529 168.467 37.6792C168.204 37.7056 167.941 37.7319 167.678 37.7582C167.02 37.8371 166.336 37.9161 165.651 37.9687C165.493 37.9687 165.336 37.9687 165.178 37.9687C164.125 37.9687 163.152 37.6792 162.283 37.1266C161.415 36.5477 160.889 35.7583 160.731 34.7847C160.731 34.7321 160.731 34.6794 160.731 34.6268C160.704 34.4689 160.678 34.2847 160.678 34.1005C160.678 32.1007 160.836 30.5744 161.178 29.1535C161.336 28.4693 161.625 27.8378 161.994 27.2852C162.573 26.4694 163.309 25.9432 164.178 25.7326C164.651 25.6011 165.204 25.4695 165.783 25.4169C165.967 25.3906 166.151 25.3906 166.362 25.3906C166.704 25.3906 167.02 25.4169 167.335 25.4432H167.572C167.888 25.4695 168.178 25.5748 168.362 25.6537C169.046 25.9695 169.388 26.6273 169.256 27.3904C169.125 28.1535 168.52 28.6798 167.73 28.7061C167.678 28.7061 167.625 28.7061 167.572 28.7061C167.335 28.7061 167.099 28.6798 166.862 28.6535C166.757 28.6535 166.651 28.6535 166.546 28.6535C166.493 28.6535 166.441 28.6535 166.388 28.6535C166.046 28.6535 165.678 28.7061 165.283 28.7851C164.888 28.864 164.651 29.0482 164.494 29.3903C164.336 29.7587 164.23 30.1271 164.178 30.4955C164.099 30.9955 164.046 31.5217 163.994 32.0743C163.967 32.3112 163.941 32.548 163.915 32.8111V33.0216C163.915 33.2585 163.915 33.5479 163.915 33.8374C163.915 34.2058 164.046 34.39 164.415 34.4952C164.599 34.5479 164.809 34.6005 164.967 34.6005C165.02 34.6005 165.151 34.6005 165.151 34.6005C165.52 34.6005 165.888 34.5742 166.257 34.5479C166.52 34.5216 166.783 34.4952 167.046 34.4689C167.335 34.4163 167.625 34.3637 167.941 34.3374C168.02 34.3374 168.099 34.3374 168.178 34.3374C168.414 34.3374 168.651 34.3637 168.862 34.4163ZM179.194 26.18L179.22 26.2063C180.062 26.6536 181.062 27.7062 181.01 30.206L180.852 36.5214C180.825 37.3372 180.194 37.9687 179.431 37.9687C179.404 37.9687 179.404 37.9687 179.378 37.9687C178.589 37.9424 177.983 37.2582 178.01 36.4425L178.168 30.1271C178.194 29.2324 178.036 28.8903 177.983 28.8377C177.562 28.5483 175.589 29.4166 173.747 30.8376L173.721 36.4425C173.721 37.2582 173.089 37.9161 172.3 37.9161C171.51 37.9161 170.879 37.2582 170.879 36.4425V30.1271C170.879 30.0218 170.879 29.9166 170.905 29.8376L170.931 21.7329C170.931 20.9172 171.563 20.2593 172.352 20.2593C173.142 20.2593 173.773 20.9172 173.773 21.7329L173.747 27.2589C175.431 26.2326 177.589 25.3379 179.194 26.18Z" fill="white"/>
</svg>
