<svg width="300" height="66" viewBox="0 0 300 66" fill="none" xmlns="http://www.w3.org/2000/svg">
<path d="M18.173 16.416L0.672363 49.2474H21.6731L35.1736 25.1696L27.1733 16.416H18.173Z" fill="#F2F2F7"/>
<path d="M73.1749 49.2474L54.1742 16.416H45.1739L37.1736 25.1696L52.1742 49.2474H73.1749Z" fill="#F2F2F7"/>
<line x1="89.9223" y1="1.44877e-08" x2="89.9223" y2="65.6627" stroke="white" stroke-width="0.662881"/>
<path d="M112.006 48.7031C111.076 48.7031 110.363 48.4551 109.867 47.959C109.371 47.4318 109.123 46.6877 109.123 45.7264V28.1453C109.123 27.184 109.371 26.4553 109.867 25.9592C110.363 25.4631 111.061 25.2151 111.96 25.2151C112.859 25.2151 113.557 25.4631 114.053 25.9592C114.549 26.4553 114.797 27.184 114.797 28.1453V31.5406L114.285 30.1452C114.905 28.5949 115.867 27.3701 117.169 26.4709C118.471 25.5716 120.022 25.122 121.82 25.122C123.65 25.122 125.153 25.5561 126.332 26.4243C127.51 27.2925 128.332 28.6259 128.797 30.4243H128.146C128.766 28.7809 129.789 27.4941 131.215 26.5639C132.642 25.6026 134.285 25.122 136.146 25.122C137.882 25.122 139.308 25.4631 140.425 26.1453C141.572 26.8274 142.425 27.8662 142.983 29.2615C143.541 30.6258 143.82 32.3623 143.82 34.4708V45.7264C143.82 46.6877 143.556 47.4318 143.029 47.959C142.533 48.4551 141.82 48.7031 140.89 48.7031C139.959 48.7031 139.246 48.4551 138.75 47.959C138.254 47.4318 138.006 46.6877 138.006 45.7264V34.7033C138.006 32.9669 137.711 31.6956 137.122 30.8894C136.564 30.0832 135.603 29.6801 134.239 29.6801C132.719 29.6801 131.525 30.2227 130.657 31.308C129.789 32.3623 129.355 33.8351 129.355 35.7266V45.7264C129.355 46.6877 129.107 47.4318 128.611 47.959C128.115 48.4551 127.401 48.7031 126.471 48.7031C125.541 48.7031 124.812 48.4551 124.285 47.959C123.789 47.4318 123.541 46.6877 123.541 45.7264V34.7033C123.541 32.9669 123.246 31.6956 122.657 30.8894C122.099 30.0832 121.153 29.6801 119.82 29.6801C118.301 29.6801 117.107 30.2227 116.239 31.308C115.371 32.3623 114.936 33.8351 114.936 35.7266V45.7264C114.936 47.7109 113.96 48.7031 112.006 48.7031ZM161.027 48.7962C158.453 48.7962 156.236 48.3156 154.376 47.3543C152.515 46.3931 151.073 45.0288 150.05 43.2613C149.058 41.4939 148.562 39.4009 148.562 36.9824C148.562 34.6258 149.042 32.5638 150.004 30.7964C150.996 29.029 152.345 27.6491 154.05 26.6569C155.787 25.6337 157.755 25.122 159.957 25.122C161.569 25.122 163.011 25.3856 164.283 25.9127C165.585 26.4398 166.686 27.1995 167.585 28.1918C168.515 29.184 169.213 30.3933 169.678 31.8196C170.174 33.215 170.422 34.7963 170.422 36.5638C170.422 37.1219 170.22 37.556 169.817 37.8661C169.445 38.1451 168.903 38.2847 168.189 38.2847H153.259V34.9359H166.329L165.585 35.6335C165.585 34.2072 165.368 33.0134 164.934 32.0522C164.531 31.091 163.926 30.3623 163.12 29.8662C162.345 29.339 161.368 29.0755 160.19 29.0755C158.887 29.0755 157.771 29.3855 156.841 30.0057C155.942 30.5948 155.244 31.4475 154.748 32.5638C154.283 33.6491 154.05 34.9514 154.05 36.4707V36.7963C154.05 39.3389 154.639 41.2459 155.818 42.5172C157.027 43.7575 158.794 44.3776 161.12 44.3776C161.926 44.3776 162.825 44.2846 163.817 44.0985C164.841 43.8815 165.802 43.5249 166.701 43.0288C167.352 42.6567 167.926 42.5017 168.422 42.5637C168.918 42.5947 169.306 42.7652 169.585 43.0753C169.895 43.3854 170.081 43.773 170.143 44.2381C170.205 44.6722 170.112 45.1218 169.864 45.5869C169.647 46.052 169.259 46.4551 168.701 46.7962C167.616 47.4784 166.36 47.99 164.934 48.3311C163.538 48.6411 162.236 48.7962 161.027 48.7962ZM177.91 48.7031C176.98 48.7031 176.267 48.4551 175.77 47.959C175.274 47.4318 175.026 46.6877 175.026 45.7264V28.1453C175.026 27.184 175.274 26.4553 175.77 25.9592C176.267 25.4631 176.964 25.2151 177.863 25.2151C178.763 25.2151 179.46 25.4631 179.956 25.9592C180.453 26.4553 180.701 27.184 180.701 28.1453V31.308L180.189 30.1452C180.871 28.5018 181.925 27.2615 183.352 26.4243C184.809 25.5561 186.452 25.122 188.282 25.122C190.111 25.122 191.615 25.4631 192.793 26.1453C193.972 26.8274 194.855 27.8662 195.445 29.2615C196.034 30.6258 196.328 32.3623 196.328 34.4708V45.7264C196.328 46.6877 196.08 47.4318 195.584 47.959C195.088 48.4551 194.375 48.7031 193.445 48.7031C192.514 48.7031 191.786 48.4551 191.259 47.959C190.762 47.4318 190.514 46.6877 190.514 45.7264V34.7498C190.514 32.9824 190.173 31.6956 189.491 30.8894C188.84 30.0832 187.817 29.6801 186.421 29.6801C184.716 29.6801 183.352 30.2227 182.328 31.308C181.336 32.3623 180.84 33.7731 180.84 35.5405V45.7264C180.84 47.7109 179.863 48.7031 177.91 48.7031ZM212.652 48.7962C210.636 48.7962 208.946 48.4551 207.582 47.7729C206.249 47.0908 205.257 46.0985 204.605 44.7962C203.954 43.4629 203.629 41.8195 203.629 39.866V29.9592H201.21C200.466 29.9592 199.892 29.7731 199.489 29.4011C199.086 28.998 198.885 28.4553 198.885 27.7732C198.885 27.06 199.086 26.5174 199.489 26.1453C199.892 25.7732 200.466 25.5871 201.21 25.5871H203.629V21.3546C203.629 20.3934 203.877 19.6647 204.373 19.1686C204.9 18.6725 205.629 18.4244 206.559 18.4244C207.489 18.4244 208.202 18.6725 208.698 19.1686C209.195 19.6647 209.443 20.3934 209.443 21.3546V25.5871H214.373C215.117 25.5871 215.691 25.7732 216.094 26.1453C216.497 26.5174 216.698 27.06 216.698 27.7732C216.698 28.4553 216.497 28.998 216.094 29.4011C215.691 29.7731 215.117 29.9592 214.373 29.9592H209.443V39.5405C209.443 41.0288 209.768 42.1451 210.419 42.8893C211.07 43.6334 212.125 44.0055 213.582 44.0055C214.109 44.0055 214.574 43.959 214.977 43.866C215.381 43.773 215.737 43.711 216.047 43.6799C216.419 43.6489 216.729 43.773 216.977 44.052C217.225 44.3001 217.349 44.8272 217.349 45.6334C217.349 46.2536 217.241 46.8117 217.024 47.3078C216.838 47.7729 216.481 48.0985 215.954 48.2845C215.551 48.4086 215.024 48.5171 214.373 48.6101C213.722 48.7342 213.148 48.7962 212.652 48.7962ZM230.229 48.7962C227.872 48.7962 225.826 48.3156 224.089 47.3543C222.353 46.3931 221.004 45.0288 220.043 43.2613C219.082 41.4629 218.601 39.3544 218.601 36.9358C218.601 35.1064 218.864 33.4785 219.392 32.0522C219.95 30.5948 220.74 29.3545 221.764 28.3313C222.787 27.277 224.012 26.4864 225.438 25.9592C226.864 25.4011 228.461 25.122 230.229 25.122C232.585 25.122 234.632 25.6026 236.368 26.5639C238.105 27.5251 239.453 28.8894 240.415 30.6568C241.376 32.4243 241.856 34.5173 241.856 36.9358C241.856 38.7653 241.577 40.4087 241.019 41.866C240.492 43.3234 239.717 44.5792 238.694 45.6334C237.67 46.6567 236.446 47.4473 235.019 48.0055C233.593 48.5326 231.996 48.7962 230.229 48.7962ZM230.229 44.3776C231.376 44.3776 232.384 44.0985 233.252 43.5404C234.12 42.9823 234.787 42.1606 235.252 41.0753C235.748 39.9591 235.996 38.5792 235.996 36.9358C235.996 34.4553 235.469 32.6103 234.415 31.401C233.36 30.1607 231.965 29.5406 230.229 29.5406C229.081 29.5406 228.074 29.8196 227.205 30.3778C226.337 30.9049 225.655 31.7266 225.159 32.8429C224.694 33.9281 224.461 35.2925 224.461 36.9358C224.461 39.3854 224.988 41.2459 226.043 42.5172C227.097 43.7575 228.492 44.3776 230.229 44.3776ZM249.632 48.7031C248.671 48.7031 247.926 48.4551 247.399 47.959C246.903 47.4318 246.655 46.6877 246.655 45.7264V28.1453C246.655 27.184 246.903 26.4553 247.399 25.9592C247.895 25.4631 248.593 25.2151 249.492 25.2151C250.391 25.2151 251.089 25.4631 251.585 25.9592C252.081 26.4553 252.329 27.184 252.329 28.1453V31.0754H251.864C252.298 29.215 253.151 27.8042 254.422 26.8429C255.694 25.8817 257.384 25.3081 259.492 25.122C260.143 25.06 260.655 25.2306 261.027 25.6337C261.43 26.0057 261.663 26.5949 261.725 27.4011C261.787 28.1763 261.601 28.8119 261.167 29.308C260.763 29.7731 260.143 30.0522 259.306 30.1452L258.283 30.2382C256.391 30.4243 254.965 31.0134 254.004 32.0057C253.043 32.9669 252.562 34.3312 252.562 36.0986V45.7264C252.562 46.6877 252.314 47.4318 251.818 47.959C251.322 48.4551 250.593 48.7031 249.632 48.7031ZM267.753 48.6566C266.822 48.6566 266.109 48.3776 265.613 47.8194C265.117 47.2613 264.869 46.4861 264.869 45.4939V28.4243C264.869 27.4011 265.117 26.6259 265.613 26.0988C266.109 25.5406 266.822 25.2616 267.753 25.2616C268.683 25.2616 269.396 25.5406 269.892 26.0988C270.419 26.6259 270.683 27.4011 270.683 28.4243V45.4939C270.683 46.4861 270.435 47.2613 269.939 47.8194C269.442 48.3776 268.714 48.6566 267.753 48.6566ZM267.753 20.936C266.667 20.936 265.815 20.6725 265.194 20.1453C264.605 19.5872 264.311 18.8275 264.311 17.8663C264.311 16.8741 264.605 16.1144 265.194 15.5873C265.815 15.0601 266.667 14.7966 267.753 14.7966C268.869 14.7966 269.722 15.0601 270.311 15.5873C270.9 16.1144 271.194 16.8741 271.194 17.8663C271.194 18.8275 270.9 19.5872 270.311 20.1453C269.722 20.6725 268.869 20.936 267.753 20.936ZM278.305 48.5636C277.623 48.5636 277.049 48.3776 276.584 48.0055C276.15 47.6024 275.918 47.0908 275.887 46.4706C275.887 45.8505 276.15 45.1993 276.677 44.5171L284.212 35.2149V37.9591L277.142 29.2615C276.584 28.5794 276.321 27.9282 276.352 27.3081C276.383 26.6879 276.615 26.1918 277.049 25.8197C277.514 25.4166 278.088 25.2151 278.77 25.2151C279.483 25.2151 280.073 25.3391 280.538 25.5871C281.034 25.8352 281.483 26.2228 281.886 26.7499L287.468 33.9126H285.421L291.049 26.7499C291.483 26.2228 291.933 25.8352 292.398 25.5871C292.863 25.3391 293.437 25.2151 294.119 25.2151C294.832 25.2151 295.406 25.4166 295.84 25.8197C296.274 26.2228 296.491 26.7344 296.491 27.3546C296.522 27.9747 296.258 28.6259 295.7 29.308L288.677 37.9126V35.308L296.212 44.5171C296.77 45.1683 297.034 45.804 297.003 46.4241C296.972 47.0442 296.724 47.5559 296.258 47.959C295.824 48.3621 295.251 48.5636 294.538 48.5636C293.855 48.5636 293.282 48.4396 292.817 48.1915C292.351 47.9435 291.902 47.5559 291.468 47.0287L285.421 39.4009H287.375L281.375 47.0287C280.972 47.5249 280.538 47.9125 280.073 48.1915C279.607 48.4396 279.018 48.5636 278.305 48.5636Z" fill="white"/>
</svg>
