<svg width="200" height="66" viewBox="0 0 200 66" fill="none" xmlns="http://www.w3.org/2000/svg">
<g clip-path="url(#clip0_335_220)">
<path d="M23.4457 57.6557V65.1498C21.1922 64.9024 19.027 64.3721 16.9855 63.6033C7.06111 59.8297 0 50.2234 0 38.9733C0 34.2365 1.25492 29.7824 3.4466 25.9381C5.1699 22.9157 7.47647 20.2733 10.2072 18.1523V29.1019C8.43975 31.9741 7.43228 35.35 7.43228 38.9645C7.43228 40.2548 7.56484 41.5097 7.80346 42.7292C8.8993 48.1643 12.3282 52.7509 16.9944 55.4021C18.9475 56.5156 21.1303 57.2933 23.4546 57.6468L23.4457 57.6557Z" fill="white"/>
<path d="M51.9733 45.0006H36.2869L41.5186 50.2324L50.0467 58.7605L45.4866 63.3206L36.8525 54.6864L32.257 50.0821V65.2825H25.8057V38.5493H45.2392C45.2127 37.2678 45.0536 36.0041 44.7796 34.7934C44.0638 31.5942 42.5349 28.7044 40.4139 26.3448V16.7031C43.0121 18.3557 45.301 20.4414 47.1746 22.8628C50.5505 27.2108 52.5831 32.6459 52.6715 38.5493C52.6715 38.6818 52.6715 38.8321 52.6715 38.9735C52.6715 41.0503 52.4329 43.0652 51.9733 45.0006Z" fill="white"/>
<path d="M38.7346 34.2716V15.4125L35.9155 13.0971L33.6266 11.3915V8.07747L31.6912 6.14207L26.9101 1.36101L25.5403 -0.00878906L24.1793 1.35218L17.4364 8.09514V14.9088L11.9572 19.2038V33.9711C10.7288 34.3423 11.0204 34.6605 10.9497 34.7047C11.5595 34.5721 12.1869 34.4484 12.8409 34.3335C13.4684 34.2274 14.1135 34.1302 14.7763 34.0507C15.8191 33.9181 16.8973 33.8209 17.9843 33.7502C18.6206 33.706 19.2657 33.6707 19.9197 33.653C24.1793 33.4851 28.545 33.6795 32.2479 33.9711C32.9196 34.0242 33.5559 34.0772 34.1833 34.1391C38.4076 34.5279 41.4035 34.9875 41.704 35.0316C40.3695 34.74 39.9718 34.4837 38.7346 34.2628V34.2716ZM14.7852 20.6973L17.4452 18.7177V33.0697C16.4289 33.1935 15.5452 33.3349 14.7852 33.4939V20.6973ZM30.8163 33.326C25.9468 32.7339 23.8347 32.672 20.8034 32.8488C20.6179 32.8576 20.4323 32.8665 20.2555 32.8841V8.90818L25.5492 3.61456L30.8074 8.87283V33.326H30.8163ZM35.9155 33.927C35.3234 33.8298 34.7401 33.7414 34.1745 33.6618C33.9889 33.6353 33.8033 33.6088 33.6266 33.5823V15.1828L35.9155 16.8884V33.9358V33.927Z" fill="white"/>
<path d="M62.9752 21.6084C62.9752 21.8647 63.258 22.0414 63.8324 22.1386C64.4068 22.227 65.3348 22.3066 66.625 22.3596C68.7548 22.4745 70.3191 22.6159 71.3265 22.8103C73.7392 23.2698 75.0824 24.1713 75.3564 25.5146C75.3918 25.7001 75.4183 25.8857 75.4183 26.089C75.4183 26.8137 75.2504 27.4588 74.9234 28.0067C74.5964 28.5546 74.1634 28.9965 73.6243 29.3412C73.0852 29.677 72.4224 29.9598 71.6358 30.1719C70.8493 30.384 70.0451 30.5342 69.2232 30.6137C68.4013 30.6933 67.4999 30.7286 66.519 30.7286C65.8031 30.7286 65.158 30.711 64.5924 30.6845C64.0268 30.6579 63.4435 30.5961 62.8338 30.5165C62.224 30.4282 61.6937 30.3221 61.2342 30.1807C60.7746 30.0482 60.3239 29.8626 59.8909 29.624C59.449 29.3853 59.0867 29.1114 58.7862 28.7932C58.4857 28.4751 58.2383 28.0862 58.035 27.6355C57.8318 27.1848 57.6904 26.6723 57.6197 26.0978H62.9752C63.2491 26.575 63.6822 26.902 64.2831 27.0964C64.884 27.2909 65.6264 27.3792 66.5101 27.3792C66.9432 27.3792 67.3585 27.3616 67.7474 27.3174C68.1362 27.282 68.5074 27.2113 68.8697 27.123C69.2321 27.0346 69.5149 26.902 69.7358 26.7253C69.9479 26.5485 70.0539 26.3453 70.0539 26.0978C70.0539 26.0094 70.0186 25.9211 69.9391 25.8504C69.8595 25.7797 69.7358 25.7178 69.5502 25.6648C69.3646 25.6118 69.1967 25.5764 69.0111 25.5411C68.8344 25.5057 68.5781 25.4792 68.2511 25.4527C67.9241 25.4262 67.6413 25.3997 67.4027 25.3908C67.1641 25.382 66.8283 25.3643 66.4041 25.3378C64.2743 25.2318 62.71 25.0815 61.7026 24.8871C59.29 24.4275 57.9467 23.5261 57.6727 22.1828C57.6374 21.9973 57.6108 21.8117 57.6108 21.6172C57.6108 18.5241 60.5802 16.9688 66.5101 16.9688C67.2348 16.9688 67.8711 16.9953 68.4279 17.0218C68.9846 17.0483 69.5767 17.1101 70.1865 17.1897C70.8051 17.2692 71.3354 17.3841 71.7949 17.5167C72.2545 17.6492 72.6963 17.8348 73.1382 18.0734C73.5801 18.312 73.9424 18.586 74.2429 18.9041C74.5345 19.2223 74.7908 19.6111 75.0029 20.0707C75.215 20.5302 75.3476 21.0428 75.4094 21.6172H70.0539C69.78 21.14 69.347 20.8042 68.7548 20.6186C68.1627 20.433 67.4116 20.3447 66.519 20.3447C66.0771 20.3447 65.6617 20.3623 65.2817 20.3977C64.9017 20.433 64.5305 20.4949 64.1594 20.5921C63.7882 20.6805 63.5054 20.813 63.2933 20.9898C63.0812 21.1665 62.9752 21.3786 62.9752 21.6261V21.6084Z" fill="white"/>
<path d="M76.7793 30.4019V17.2871H83.1776L88.2945 23.8445L93.4202 17.2871H99.8097V30.4019H94.6928V23.4026L89.5671 30.4019H87.0131L81.8874 23.4026V30.4019H76.7705H76.7793Z" fill="white"/>
<path d="M100.198 30.4194L107.233 17.3047H113.313L120.348 30.4194H114.594L113.56 28.1747H106.994L105.96 30.4194H100.207H100.198ZM110.282 21.1048L108.479 24.9756H112.076L110.282 21.1048Z" fill="white"/>
<path d="M120.737 17.2959H133.374C134.258 17.2959 135.089 17.508 135.849 17.9587C136.618 18.4006 137.227 19.0104 137.669 19.7792C138.12 20.5481 138.332 21.37 138.323 22.2537C138.323 23.2435 138.058 24.1361 137.537 24.9403C137.015 25.7445 136.326 26.3366 135.469 26.7343L138.332 30.4107H132.888L130.423 27.2115H125.854V30.4107H120.737V17.2959ZM132.084 21.1313H125.854V23.3672H132.084C132.393 23.3672 132.659 23.2612 132.871 23.0491C133.092 22.8281 133.206 22.563 133.206 22.2625C133.206 21.9621 133.1 21.6881 132.879 21.4672C132.659 21.2462 132.393 21.1402 132.084 21.1402V21.1313Z" fill="white"/>
<path d="M150.36 30.4194H145.243V21.4583H139.163V17.3047H156.431V21.4583H150.351V30.4194H150.36Z" fill="white"/>
<path d="M57.6196 34.9092H70.2572C71.1409 34.9092 71.9716 35.1213 72.7316 35.572C73.5005 36.0139 74.1103 36.6237 74.5522 37.3925C74.994 38.1614 75.215 38.9833 75.2061 39.867C75.215 40.7508 75.0029 41.5815 74.5522 42.3415C74.1014 43.1104 73.4917 43.7202 72.7316 44.162C71.9716 44.6039 71.1409 44.8248 70.2572 44.816H62.7365V48.0151H57.6196V34.9004V34.9092ZM62.7365 40.9805H68.9846C69.2939 40.9805 69.5502 40.8745 69.7623 40.6624C69.9832 40.4415 70.0981 40.1763 70.0981 39.8759C70.0981 39.5754 69.992 39.3014 69.7623 39.0893C69.5502 38.8684 69.285 38.7535 68.9846 38.7535H62.7365V40.9894V40.9805Z" fill="white"/>
<path d="M76.5938 34.9004H89.2313C90.115 34.9004 90.9457 35.1125 91.7058 35.5632C92.4746 36.0051 93.0844 36.6149 93.5263 37.3837C93.977 38.1526 94.1891 38.9744 94.1802 39.8582C94.1802 40.848 93.9151 41.7406 93.3937 42.5448C92.8723 43.349 92.183 43.9411 91.3258 44.3388L94.1891 48.0151H88.7452L86.2796 44.816H81.7106V48.0151H76.5938V34.9004ZM87.941 38.7358H81.7106V40.9717H87.941C88.2503 40.9717 88.5155 40.8657 88.7276 40.6536C88.9485 40.4326 89.0634 40.1675 89.0634 39.867C89.0634 39.5666 88.9573 39.2926 88.7364 39.0717C88.5155 38.8507 88.2503 38.7447 87.941 38.7447V38.7358Z" fill="white"/>
<path d="M95.771 48.023V34.9082H111.122V38.2664H100.888V39.9455H111.122V42.9768H100.888V44.6559H111.122V48.023H95.771Z" fill="white"/>
<path d="M113.826 47.9966V34.8818H120.224L125.341 41.4392L130.467 34.8818H136.856V47.9966H131.739V40.9973L126.614 47.9966H124.059L118.934 40.9973V47.9966H113.817H113.826Z" fill="white"/>
<path d="M139.825 34.8916H144.942V48.0064H139.825V34.8916Z" fill="white"/>
<path d="M151.677 39.2129C151.677 39.4692 151.96 39.6459 152.534 39.7431C153.108 39.8315 154.036 39.9111 155.327 39.9641C157.457 40.079 159.021 40.2204 160.028 40.4148C162.441 40.8743 163.784 41.7758 164.058 43.119C164.093 43.3046 164.12 43.4902 164.12 43.6935C164.12 44.4181 163.952 45.0633 163.625 45.6112C163.298 46.1591 162.865 46.601 162.326 46.9457C161.787 47.2815 161.124 47.5643 160.338 47.7764C159.551 47.9885 158.747 48.1387 157.925 48.2182C157.103 48.2978 156.202 48.3331 155.221 48.3331C154.505 48.3331 153.86 48.3155 153.294 48.2889C152.728 48.2624 152.145 48.2006 151.535 48.121C150.926 48.0327 150.395 47.9266 149.936 47.7852C149.476 47.6526 149.026 47.4671 148.593 47.2284C148.151 46.9898 147.788 46.7159 147.488 46.3977C147.187 46.0796 146.94 45.6907 146.737 45.24C146.533 44.7893 146.392 44.2767 146.321 43.7023H151.677C151.951 44.1795 152.384 44.5065 152.985 44.7009C153.586 44.8954 154.328 44.9837 155.212 44.9837C155.645 44.9837 156.06 44.9661 156.449 44.9219C156.838 44.8865 157.209 44.8158 157.571 44.7275C157.934 44.6391 158.217 44.5065 158.437 44.3298C158.65 44.153 158.756 43.9498 158.756 43.7023C158.756 43.6139 158.72 43.5256 158.641 43.4549C158.561 43.3842 158.437 43.3223 158.252 43.2693C158.066 43.2163 157.898 43.1809 157.713 43.1456C157.536 43.1102 157.28 43.0837 156.953 43.0572C156.626 43.0307 156.343 43.0042 156.104 42.9953C155.866 42.9865 155.53 42.9688 155.106 42.9423C152.976 42.8362 151.412 42.686 150.404 42.4916C147.992 42.032 146.648 41.1306 146.374 39.7873C146.339 39.6017 146.312 39.4162 146.312 39.2217C146.312 36.1286 149.282 34.5732 155.212 34.5732C155.936 34.5732 156.573 34.5998 157.13 34.6263C157.686 34.6528 158.278 34.7146 158.888 34.7942C159.507 34.8737 160.037 34.9886 160.497 35.1212C160.956 35.2537 161.398 35.4393 161.84 35.6779C162.282 35.9165 162.644 36.1905 162.945 36.5086C163.236 36.8268 163.492 37.2156 163.705 37.6752C163.917 38.1347 164.049 38.6473 164.111 39.2217H158.756C158.482 38.7445 158.049 38.4087 157.457 38.2231C156.864 38.0375 156.113 37.9491 155.221 37.9491C154.779 37.9491 154.363 37.9668 153.983 38.0022C153.603 38.0375 153.232 38.0994 152.861 38.1966C152.49 38.285 152.207 38.4175 151.995 38.5943C151.783 38.771 151.677 38.9831 151.677 39.2306V39.2129Z" fill="white"/>
<path d="M165.48 48.023V34.9082H180.831V38.2664H170.597V39.9455H180.831V42.9768H170.597V44.6559H180.831V48.023H165.48Z" fill="white"/>
<path d="M187.557 39.2129C187.557 39.4692 187.839 39.6459 188.414 39.7431C188.988 39.8315 189.916 39.9111 191.207 39.9641C193.336 40.079 194.901 40.2204 195.908 40.4148C198.321 40.8743 199.664 41.7758 199.938 43.119C199.973 43.3046 200 43.4902 200 43.6935C200 44.4181 199.832 45.0633 199.505 45.6112C199.178 46.1591 198.745 46.601 198.206 46.9457C197.667 47.2815 197.004 47.5643 196.217 47.7764C195.431 47.9885 194.627 48.1387 193.805 48.2182C192.983 48.2978 192.081 48.3331 191.101 48.3331C190.385 48.3331 189.74 48.3155 189.174 48.2889C188.608 48.2624 188.025 48.2006 187.415 48.121C186.806 48.0327 186.275 47.9266 185.816 47.7852C185.356 47.6526 184.905 47.4671 184.472 47.2284C184.031 46.9898 183.668 46.7159 183.368 46.3977C183.067 46.0796 182.82 45.6907 182.617 45.24C182.413 44.7893 182.272 44.2767 182.201 43.7023H187.557C187.831 44.1795 188.264 44.5065 188.865 44.7009C189.466 44.8954 190.208 44.9837 191.092 44.9837C191.525 44.9837 191.94 44.9661 192.329 44.9219C192.718 44.8865 193.089 44.8158 193.451 44.7275C193.814 44.6391 194.096 44.5065 194.317 44.3298C194.529 44.153 194.635 43.9498 194.635 43.7023C194.635 43.6139 194.6 43.5256 194.521 43.4549C194.441 43.3842 194.317 43.3223 194.132 43.2693C193.946 43.2163 193.778 43.1809 193.593 43.1456C193.416 43.1102 193.16 43.0837 192.833 43.0572C192.506 43.0307 192.223 43.0042 191.984 42.9953C191.746 42.9865 191.41 42.9688 190.986 42.9423C188.856 42.8362 187.292 42.686 186.284 42.4916C183.871 42.032 182.528 41.1306 182.254 39.7873C182.219 39.6017 182.192 39.4162 182.192 39.2217C182.192 36.1286 185.162 34.5732 191.092 34.5732C191.816 34.5732 192.453 34.5998 193.009 34.6263C193.566 34.6528 194.158 34.7146 194.768 34.7942C195.387 34.8737 195.917 34.9886 196.376 35.1212C196.836 35.2537 197.278 35.4393 197.72 35.6779C198.162 35.9165 198.524 36.1905 198.824 36.5086C199.116 36.8268 199.372 37.2156 199.584 37.6752C199.797 38.1347 199.929 38.6473 199.991 39.2217H194.635C194.362 38.7445 193.928 38.4087 193.336 38.2231C192.744 38.0375 191.993 37.9491 191.101 37.9491C190.659 37.9491 190.243 37.9668 189.863 38.0022C189.483 38.0375 189.112 38.0994 188.741 38.1966C188.37 38.285 188.087 38.4175 187.875 38.5943C187.663 38.771 187.557 38.9831 187.557 39.2306V39.2129Z" fill="white"/>
</g>
<defs>
<clipPath id="clip0_335_220">
<rect width="200" height="65.291" fill="white"/>
</clipPath>
</defs>
</svg>
