<svg xmlns="http://www.w3.org/2000/svg" width="16.266" height="26.025" viewBox="0 0 16.266 26.025">
  <path id="Icon_awesome-mobile-alt" data-name="Icon awesome-mobile-alt" d="M13.826,0H2.44A2.44,2.44,0,0,0,0,2.44V23.585a2.44,2.44,0,0,0,2.44,2.44H13.826a2.44,2.44,0,0,0,2.44-2.44V2.44A2.44,2.44,0,0,0,13.826,0ZM8.133,24.4a1.627,1.627,0,1,1,1.627-1.627A1.625,1.625,0,0,1,8.133,24.4Zm5.693-5.49a.612.612,0,0,1-.61.61H3.05a.612.612,0,0,1-.61-.61V3.05a.612.612,0,0,1,.61-.61H13.216a.612.612,0,0,1,.61.61Z" fill="#fe621d"/>
</svg>
