<svg xmlns="http://www.w3.org/2000/svg" width="33.281" height="23.297" viewBox="0 0 33.281 23.297">
  <path id="Icon_awesome-bezier-curve" data-name="Icon awesome-bezier-curve" d="M19.137,2.25H14.144A1.664,1.664,0,0,0,12.48,3.914V8.906a1.664,1.664,0,0,0,1.664,1.664h4.992A1.664,1.664,0,0,0,20.8,8.906V3.914A1.664,1.664,0,0,0,19.137,2.25Zm-8.32,2.912H6.409a3.328,3.328,0,1,0,0,2.5h4.146a12.075,12.075,0,0,0-5.7,7.9H7.428a9.552,9.552,0,0,1,3.694-5.281,3.291,3.291,0,0,1-.306-1.375ZM8.32,17.226H3.328a1.664,1.664,0,0,0-1.664,1.664v4.992a1.664,1.664,0,0,0,1.664,1.664H8.32a1.664,1.664,0,0,0,1.664-1.664V18.891A1.664,1.664,0,0,0,8.32,17.226ZM29.953,3.082a3.325,3.325,0,0,0-3.081,2.08H22.465V8.906a3.3,3.3,0,0,1-.306,1.375,9.552,9.552,0,0,1,3.694,5.281h2.569a12.075,12.075,0,0,0-5.7-7.9h4.146a3.326,3.326,0,1,0,3.081-4.576Zm0,14.144H24.961A1.664,1.664,0,0,0,23.3,18.891v4.992a1.664,1.664,0,0,0,1.664,1.664h4.992a1.664,1.664,0,0,0,1.664-1.664V18.891A1.664,1.664,0,0,0,29.953,17.226Z" transform="translate(0 -2.25)" fill="#fe621d"/>
</svg>
