<svg width="52" height="52" viewBox="0 0 52 52" fill="none" xmlns="http://www.w3.org/2000/svg">
<path fill-rule="evenodd" clip-rule="evenodd" d="M24.2771 0.0280954C32.2099 0.564299 35.2177 9.98768 40.1099 16.2553C44.8883 22.3772 52.7653 27.4464 51.6805 35.1362C50.5426 43.2022 42.9264 49.0395 35.145 51.4489C28.4739 53.5145 22.1788 49.332 15.9349 46.2043C9.88435 43.1734 2.87301 40.6814 0.794037 34.2414C-1.45392 27.2779 1.37094 19.9497 5.51181 13.9167C10.145 7.16643 16.1084 -0.524056 24.2771 0.0280954Z" fill="#001932" fill-opacity="0.08"/>
<path d="M16.0573 21.4097V30.7764" stroke="#001932" stroke-width="1.5" stroke-linecap="round" stroke-linejoin="round"/>
<path d="M16.3917 20.7405C18.7935 20.7405 20.7405 18.7935 20.7405 16.3917C20.7405 13.9899 18.7935 12.0428 16.3917 12.0428C13.9899 12.0428 12.0428 13.9899 12.0428 16.3917C12.0428 18.7935 13.9899 20.7405 16.3917 20.7405Z" stroke="#001932" stroke-width="1.5" stroke-linecap="round" stroke-linejoin="round"/>
<path d="M16.0572 38.805C18.2742 38.805 20.0715 37.0077 20.0715 34.7907C20.0715 32.5736 18.2742 30.7764 16.0572 30.7764C13.8401 30.7764 12.0428 32.5736 12.0428 34.7907C12.0428 37.0077 13.8401 38.805 16.0572 38.805Z" stroke="#001932" stroke-width="1.5" stroke-linecap="round" stroke-linejoin="round"/>
<path d="M34.7907 38.805C37.0077 38.805 38.805 37.0077 38.805 34.7907C38.805 32.5736 37.0077 30.7764 34.7907 30.7764C32.5736 30.7764 30.7764 32.5736 30.7764 34.7907C30.7764 37.0077 32.5736 38.805 34.7907 38.805Z" stroke="#001932" stroke-width="1.5" stroke-linecap="round" stroke-linejoin="round"/>
<path d="M16.2312 21.4097C16.8333 23.7513 18.9743 25.4909 21.5033 25.4775L26.093 25.4641C29.5989 25.4507 32.5828 27.6988 33.6801 30.8299" stroke="#001932" stroke-width="1.5" stroke-linecap="round" stroke-linejoin="round"/>
</svg>
