<svg width="52" height="53" viewBox="0 0 52 53" fill="none" xmlns="http://www.w3.org/2000/svg">
<path fill-rule="evenodd" clip-rule="evenodd" d="M24.4281 0.167133C32.3609 0.703337 35.3687 10.1267 40.2609 16.3944C45.0393 22.5162 52.9163 27.5854 51.8315 35.2752C50.6936 43.3413 43.0774 49.1785 35.296 51.5879C28.6249 53.6535 22.3298 49.4711 16.0859 46.3433C10.0354 43.3124 3.02401 40.8205 0.945038 34.3804C-1.30292 27.417 1.52195 20.0887 5.66281 14.0558C10.296 7.30547 16.2594 -0.385018 24.4281 0.167133Z" fill="#001932" fill-opacity="0.08"/>
<path d="M25.3729 26.715C29.068 26.715 32.0634 23.7196 32.0634 20.0245C32.0634 16.3294 29.068 13.334 25.3729 13.334C21.6778 13.334 18.6824 16.3294 18.6824 20.0245C18.6824 23.7196 21.6778 26.715 25.3729 26.715Z" stroke="#001932" stroke-width="1.5" stroke-linecap="round" stroke-linejoin="round"/>
<path d="M13.8785 40.0961C13.8785 34.9176 19.0303 30.7294 25.3729 30.7294" stroke="#001932" stroke-width="1.5" stroke-linecap="round" stroke-linejoin="round"/>
<path d="M33.6692 39.2933C36.034 39.2933 37.9511 37.3762 37.9511 35.0113C37.9511 32.6465 36.034 30.7294 33.6692 30.7294C31.3043 30.7294 29.3872 32.6465 29.3872 35.0113C29.3872 37.3762 31.3043 39.2933 33.6692 39.2933Z" stroke="#001932" stroke-width="1.5" stroke-linecap="round" stroke-linejoin="round"/>
<path d="M38.7539 40.096L37.4158 38.7579" stroke="#001932" stroke-width="1.5" stroke-linecap="round" stroke-linejoin="round"/>
</svg>
