<svg width="52" height="52" viewBox="0 0 52 52" fill="none" xmlns="http://www.w3.org/2000/svg">
<path fill-rule="evenodd" clip-rule="evenodd" d="M24.2771 0.0280954C32.2099 0.564299 35.2177 9.98768 40.1099 16.2553C44.8883 22.3772 52.7653 27.4464 51.6805 35.1362C50.5426 43.2022 42.9264 49.0395 35.145 51.4489C28.4739 53.5145 22.1788 49.332 15.9349 46.2043C9.88435 43.1734 2.87301 40.6814 0.794037 34.2414C-1.45392 27.2779 1.37094 19.9497 5.51181 13.9167C10.145 7.16643 16.1084 -0.524056 24.2771 0.0280954Z" fill="#001932" fill-opacity="0.08"/>
<path d="M23.7513 40.8122H27.1233C28.4079 40.8122 29.2375 39.9023 28.9967 38.7916L28.448 36.3698H22.4266L21.878 38.7916C21.6371 39.8354 22.547 40.8122 23.7513 40.8122Z" stroke="#001932" stroke-width="1.5" stroke-linecap="round" stroke-linejoin="round"/>
<path d="M28.4481 36.3564L30.763 34.2957C32.061 33.1449 32.1145 32.342 31.0842 31.044L27.0029 25.8656C26.1465 24.7818 24.7416 24.7818 23.8852 25.8656L19.804 31.044C18.7736 32.342 18.7736 33.185 20.1251 34.2957L22.44 36.3564" stroke="#001932" stroke-width="1.5" stroke-linecap="round" stroke-linejoin="round"/>
<path d="M25.4374 25.5846V28.97" stroke="#001932" stroke-width="1.5" stroke-linecap="round" stroke-linejoin="round"/>
<path d="M26.1197 17.3953H24.7816C24.0456 17.3953 23.4435 16.7931 23.4435 16.0572V14.7191C23.4435 13.9831 24.0456 13.381 24.7816 13.381H26.1197C26.8556 13.381 27.4578 13.9831 27.4578 14.7191V16.0572C27.4578 16.7931 26.8556 17.3953 26.1197 17.3953Z" stroke="#001932" stroke-width="1.5" stroke-linecap="round" stroke-linejoin="round"/>
<path d="M13.7423 29.6658H15.0804C15.8163 29.6658 16.4185 29.0636 16.4185 28.3277V26.9896C16.4185 26.2536 15.8163 25.6514 15.0804 25.6514H13.7423C13.0063 25.6514 12.4042 26.2536 12.4042 26.9896V28.3277C12.4042 29.0636 13.0063 29.6658 13.7423 29.6658Z" stroke="#001932" stroke-width="1.5" stroke-linecap="round" stroke-linejoin="round"/>
<path d="M37.1055 29.6658H35.7674C35.0315 29.6658 34.4293 29.0636 34.4293 28.3277V26.9896C34.4293 26.2536 35.0315 25.6514 35.7674 25.6514H37.1055C37.8415 25.6514 38.4436 26.2536 38.4436 26.9896V28.3277C38.4436 29.0636 37.8415 29.6658 37.1055 29.6658Z" stroke="#001932" stroke-width="1.5" stroke-linecap="round" stroke-linejoin="round"/>
<path d="M23.4435 15.4684C18.3453 16.0705 14.3845 20.3926 14.3845 25.6513" stroke="#001932" stroke-width="1.5" stroke-linecap="round" stroke-linejoin="round"/>
<path d="M36.4633 25.6513C36.4633 20.406 32.5293 16.0973 27.4579 15.4684" stroke="#001932" stroke-width="1.5" stroke-linecap="round" stroke-linejoin="round"/>
</svg>
